<svg width="60" height="60" viewBox="0 0 60 60" fill="none" xmlns="http://www.w3.org/2000/svg">
<circle cx="30" cy="30" r="30" fill="#FBF9FB"/>
<g clip-path="url(#clip0_1036_146)">
<path d="M39.6279 22.5567C39.3223 22.2766 38.8878 22.1833 38.4941 22.3131L21.7879 27.8201C21.3326 27.9702 21.0238 28.3766 21.0013 28.8555C20.9788 29.3343 21.248 29.7679 21.6872 29.9601L25.8188 31.7678C25.8389 31.8613 27.025 37.3623 27.0653 37.5493C27.1171 37.7894 27.239 38.0034 27.4972 38.0692C27.7584 38.1357 27.943 37.9929 28.1379 37.847C28.2464 37.7658 31.2039 35.5513 31.2039 35.5513L34.7882 38.4843C34.997 38.6553 35.2522 38.7444 35.5123 38.7444C35.6362 38.7444 35.7613 38.7242 35.8829 38.6829C36.2602 38.555 36.5398 38.2471 36.631 37.8593L39.9696 23.6649C40.0645 23.2614 39.9336 22.8368 39.6279 22.5567ZM28.405 32.8036C28.4029 32.8085 28.4009 32.8139 28.399 32.8204L27.7079 35.2351L26.9366 31.6579L32.2402 28.7113L28.5322 32.5884C28.4738 32.6494 28.4308 32.7233 28.405 32.8036ZM28.6243 36.0887L28.9382 34.992L29.2385 33.9429L30.3143 34.8233L28.6243 36.0887ZM38.8833 23.4094L35.5448 37.6038C35.5431 37.6109 35.5409 37.6206 35.5245 37.6261C35.5084 37.6316 35.5005 37.6253 35.4949 37.6207L31.5728 34.4112C31.5727 34.4111 31.5726 34.411 31.5725 34.411L29.7553 32.9239L35.5935 26.8195C35.7841 26.6201 35.8004 26.3113 35.6319 26.0929C35.4632 25.8745 35.1603 25.8121 34.9192 25.9462L26.2745 30.7492L22.1345 28.9378C22.1219 28.9323 22.115 28.9292 22.116 28.9079C22.117 28.8866 22.1242 28.8842 22.1372 28.8799L38.8434 23.3728C38.8515 23.3702 38.8606 23.3672 38.8741 23.3794C38.8875 23.3917 38.8853 23.4011 38.8833 23.4094Z" fill="black"/>
</g>
<defs>
<clipPath id="clip0_1036_146">
<rect width="19" height="19" fill="white" transform="translate(21 21)"/>
</clipPath>
</defs>
</svg>
