<svg width="60" height="60" viewBox="0 0 60 60" fill="none" xmlns="http://www.w3.org/2000/svg">
<circle cx="30" cy="30" r="30" fill="#FBF9FB"/>
<path d="M39.2084 23.375C38.4503 23.9097 37.6109 24.3187 36.7226 24.5862C36.2458 24.038 35.6121 23.6495 34.9073 23.4731C34.2025 23.2967 33.4605 23.3411 32.7817 23.6002C32.1029 23.8593 31.5201 24.3206 31.112 24.9217C30.704 25.5228 30.4903 26.2348 30.5001 26.9612V27.7529C29.1088 27.789 27.7303 27.4804 26.4871 26.8547C25.244 26.229 24.1749 25.3056 23.3751 24.1667C23.3751 24.1667 20.2084 31.2917 27.3334 34.4583C25.703 35.565 23.7607 36.12 21.7917 36.0417C28.9168 40 37.6251 36.0417 37.6251 26.9375C37.6244 26.717 37.6032 26.497 37.5618 26.2804C38.3697 25.4836 38.9399 24.4776 39.2084 23.375V23.375Z" stroke="black" stroke-width="1.5" stroke-linecap="round" stroke-linejoin="round"/>
</svg>
