<svg width="60" height="60" viewBox="0 0 60 60" fill="none" xmlns="http://www.w3.org/2000/svg">
<circle cx="30" cy="30" r="30" fill="#FBF9FB"/>
<g clip-path="url(#clip0_1036_149)">
<path d="M34.8598 32.3264L34.8527 32.3857C33.1118 31.5181 32.9297 31.4025 32.7049 31.7397C32.5489 31.9733 32.0945 32.5029 31.9576 32.6597C31.819 32.814 31.6813 32.8259 31.4462 32.719C31.2087 32.6003 30.4463 32.3509 29.5438 31.5434C28.8408 30.914 28.3689 30.1422 28.2296 29.9047C27.9977 29.5041 28.4829 29.4471 28.9247 28.6111C29.0039 28.4448 28.9635 28.3142 28.9049 28.1962C28.8455 28.0775 28.3729 26.9137 28.175 26.4498C27.985 25.9875 27.7894 26.0461 27.643 26.0461C27.187 26.0065 26.8537 26.0128 26.56 26.3184C25.2822 27.7228 25.6044 29.1716 26.6977 30.7122C28.8463 33.5242 29.9911 34.0419 32.0842 34.7607C32.6495 34.9404 33.1649 34.9151 33.5726 34.8565C34.027 34.7845 34.9714 34.2857 35.1686 33.7276C35.3704 33.1695 35.3704 32.7064 35.3111 32.5995C35.2525 32.4926 35.0973 32.4332 34.8598 32.3264Z" fill="black"/>
<path d="M37.245 23.7304C31.1579 17.8459 21.0839 22.1138 21.08 30.4152C21.08 32.0745 21.5146 33.6927 22.3427 35.1217L21 39.9999L26.0152 38.6921C32.2733 42.0725 39.9968 37.5837 40 30.4199C40 27.9056 39.0183 25.5393 37.2331 23.7612L37.245 23.7304ZM38.4183 30.3938C38.4135 36.4366 31.7801 40.2105 26.5338 37.1262L26.2488 36.9567L23.28 37.7286L24.0756 34.843L23.8864 34.5461C20.6216 29.3488 24.3725 22.5563 30.557 22.5563C32.6581 22.5563 34.6301 23.3757 36.1153 24.8601C37.5997 26.3318 38.4183 28.3038 38.4183 30.3938Z" fill="black"/>
</g>
<defs>
<clipPath id="clip0_1036_149">
<rect width="19" height="19" fill="white" transform="translate(21 21)"/>
</clipPath>
</defs>
</svg>
